# xmcd
# 
# Track frame offsets:
#     150
#     29512
#     55240
#     73335
#     99675
#     126935
#     147867
#     166472
#     190445
#     214545
#     246337
#     271070
#     290435
# 
# Disc length: 4139
# 
# Revision: 14
# Processed by: cddbd v1.5.2PL0 Copyright (c) Steve Scherf et al.
# Submitted via: BonkEnc v1.0.8
# 
DISCID=cf10290d
DTITLE=Deep Purple - Very Best Of [CD2]
DYEAR=1998
DGENRE=Heavy Metal
TTITLE0=Highway Star ('97 Remix)
TTITLE1=Smoke On The Water (25th Anniversary Remaster)
TTITLE2=Never Before (25th Anniversary Remaster)
TTITLE3=Woman From Tokyo (25th Anniversary Remaster)
TTITLE4=Burn
TTITLE5=Might Just Take Your Life
TTITLE6=Stormbringer
TTITLE7=You Keep On Moving
TTITLE8=Perfect Strangers
TTITLE9=Knocking At Your Back Door
TTITLE10=King Of Dreams
TTITLE11=Ted The Mecanic
TTITLE12=Any Fule Kno That
EXTD=YEAR: 1998
EXTT0='97 remix
EXTT1=
EXTT2=
EXTT3=
EXTT4=
EXTT5=
EXTT6=
EXTT7=
EXTT8=
EXTT9=
EXTT10=
EXTT11=
EXTT12=
PLAYORDER=
